<?xml version="1.0" encoding="UTF-8"?>
<svg id="Layer_1" data-name="Layer 1" xmlns="http://www.w3.org/2000/svg" viewBox="0 0 400 200">
  <defs>
    <style>
      .cls-1 {
        fill: #fea142;
      }

      .cls-2 {
        fill: #22d9bb;
      }
    </style>
  </defs>
  <g>
    <polygon class="cls-1" points="318.51 111.02 318.51 86.03 333.06 109.82 376.77 106.21 354.76 73.19 395.69 12.48 352.16 12.48 318.51 66.77 318.51 12.48 280.35 12.48 280.35 114.18 318.51 111.02"/>
    <path class="cls-1" d="m266.64,115.31v-11.42c-6.77,4.51-15.09,6.42-23.94,6.42-19.95,0-35.21-15.09-35.21-33.3s15.26-32.96,35.21-32.96c8.85,0,17.17,1.91,23.94,6.42V14.39c-7.98-3.82-17-5.2-26.54-5.2-41.63,0-70.77,30.35-70.77,67.82,0,17.23,6.12,32.96,16.74,44.96l80.57-6.66Z"/>
    <path class="cls-1" d="m48.43,133.34v-27.02h4.68c24.28,0,57.41-10.75,57.41-46.83,0-41.28-30.88-47.01-57.24-47.01H10.27v124.02l38.16-3.15Zm0-88.6h6.94c11.1,0,17.87,3.64,17.87,14.92,0,10.58-6.59,15.44-17.87,15.44h-6.94v-30.35Z"/>
    <polygon class="cls-1" points="158.57 124.24 158.57 12.48 120.41 12.48 120.41 127.39 158.57 124.24"/>
  </g>
  <g>
    <path class="cls-2" d="m69.27,148.59v41.47h20.24v-21.44h.55l13.31,21.44h23.94l-17.38-25.97c7.12-3.7,12.57-9.8,12.57-18.58,0-.45-.02-.88-.03-1.31l-19.76,1.63c0,.05.01.09.01.14,0,6.1-3.97,8.69-10.07,8.69h-3.14v-7.74l-20.24,1.67Z"/>
    <path class="cls-2" d="m130.17,143.56v15.17c0,21.81,11.28,33.55,30.59,33.55s30.69-11.74,30.69-33.55v-20.23l-20.24,1.67v21.7c0,7.67-4.9,12.29-10.45,12.29s-10.26-4.62-10.26-12.29v-19.99l-20.33,1.68Z"/>
    <path class="cls-2" d="m47.83,191.81c5.08,0,9.89-.74,14.14-2.77v-19.23c-3.61,2.4-8.04,3.42-12.76,3.42-10.63,0-18.76-8.04-18.76-17.75,0-1.28.15-2.52.42-3.72l-20.66,1.71c-.04.67-.1,1.34-.1,2.02,0,20.06,15.53,36.32,37.71,36.32Z"/>
    <polygon class="cls-2" points="370.11 123.73 370.11 144.12 350.51 144.12 350.51 125.35 330.18 127.03 330.18 190.06 350.51 190.06 350.51 162.51 370.11 162.51 370.11 190.06 390.35 190.06 390.35 122.06 370.11 123.73"/>
    <path class="cls-2" d="m310.12,137.93c4.71,0,9.15,1.02,12.76,3.42v-13.72l-42.43,3.51c-5.95,6.43-9.43,14.95-9.43,24.35,0,20.06,15.53,36.32,37.71,36.32,5.08,0,9.89-.74,14.14-2.77v-19.23c-3.61,2.4-8.04,3.42-12.76,3.42-10.63,0-18.76-8.04-18.76-17.75s8.13-17.56,18.76-17.56Z"/>
    <polygon class="cls-2" points="199.58 190.06 219.92 190.06 219.92 155.12 246.26 190.06 265.21 190.06 265.21 132.4 244.96 134.07 244.96 155.77 229.6 135.34 199.58 137.82 199.58 190.06"/>
  </g>
</svg>