<?xml version="1.0" encoding="UTF-8"?>
<svg id="Layer_1" data-name="Layer 1" xmlns="http://www.w3.org/2000/svg" viewBox="0 0 248.52 248.52">
  <defs>
    <style>
      .cls-1 {
        fill: #fea142;
      }

      .cls-2 {
        fill: #22d9bb;
      }

      .cls-3 {
        fill: #404548;
      }
    </style>
  </defs>
  <rect class="cls-3" width="248.52" height="248.52" rx="36.91" ry="36.91"/>
  <path class="cls-1" d="m154.03,55.19c-13.09-20.01-38.76-23.55-61.69-23.55h-52.89v159.1h46.92v-43.72h5.76c5.39,0,11.14-.44,16.94-1.41l44.96-90.43Zm-67.66,53.45v-37.32h8.53c13.65,0,21.97,4.48,21.97,18.34,0,13.01-8.1,18.98-21.97,18.98h-8.53Z"/>
  <path class="cls-2" d="m170.61,60.02l-57.11,114.87-4.8,9.25c14.31,20.69,38.7,34.25,68.65,34.25,11.13,0,21.65-1.62,30.95-6.07v-42.08c-7.89,5.26-17.6,7.49-27.92,7.49-23.27,0-41.07-17.6-41.07-38.85s17.8-38.44,41.07-38.44c10.32,0,20.03,2.23,27.92,7.49v-42.08c-9.31-4.45-19.83-6.07-30.95-6.07-2.29,0-4.53.1-6.75.26Z"/>
</svg>