<?xml version="1.0" encoding="UTF-8"?>
<svg id="Layer_1" data-name="Layer 1" xmlns="http://www.w3.org/2000/svg" viewBox="0 0 486.32 289.22">
  <defs>
    <style>
      .cls-1 {
        fill: #fea142;
      }

      .cls-2 {
        fill: #22d9bb;
      }

      .cls-3 {
        fill: #404548;
      }
    </style>
  </defs>
  <rect class="cls-3" width="486.32" height="289.22" rx="36.91" ry="36.91"/>
  <g>
    <g>
      <polygon class="cls-1" points="357.74 153.21 357.74 128.46 372.15 152.02 415.43 148.44 393.63 115.75 434.17 55.63 391.06 55.63 357.74 109.39 357.74 55.63 319.95 55.63 319.95 156.33 357.74 153.21"/>
      <path class="cls-1" d="m306.38,157.46v-11.31c-6.7,4.47-14.94,6.36-23.7,6.36-19.75,0-34.87-14.94-34.87-32.98s15.11-32.64,34.87-32.64c8.76,0,17,1.89,23.7,6.36v-35.73c-7.9-3.78-16.83-5.15-26.28-5.15-41.22,0-70.08,30.06-70.08,67.16,0,17.06,6.06,32.64,16.57,44.52l79.79-6.59Z"/>
      <path class="cls-1" d="m90.29,175.31v-26.76h4.64c24.05,0,56.85-10.65,56.85-46.38,0-40.88-30.57-46.55-56.68-46.55h-42.6v122.81l37.79-3.12Zm0-87.73h6.87c10.99,0,17.69,3.61,17.69,14.77,0,10.48-6.53,15.29-17.69,15.29h-6.87v-30.06Z"/>
      <polygon class="cls-1" points="199.37 166.3 199.37 55.63 161.58 55.63 161.58 169.42 199.37 166.3"/>
    </g>
    <g>
      <path class="cls-2" d="m110.93,190.41v41.06h20.04v-21.23h.55l13.18,21.23h23.71l-17.21-25.72c7.05-3.66,12.45-9.7,12.45-18.4,0-.45-.02-.87-.03-1.3l-19.57,1.62c0,.05.01.09.01.14,0,6.04-3.94,8.6-9.98,8.6h-3.11v-7.66l-20.04,1.66Z"/>
      <path class="cls-2" d="m171.24,185.43v15.02c0,21.6,11.17,33.23,30.3,33.23s30.39-11.63,30.39-33.23v-20.03l-20.04,1.66v21.49c0,7.6-4.85,12.17-10.34,12.17s-10.16-4.58-10.16-12.17v-19.79l-20.14,1.66Z"/>
      <path class="cls-2" d="m89.7,233.21c5.03,0,9.79-.73,14-2.74v-19.04c-3.57,2.38-7.96,3.39-12.63,3.39-10.53,0-18.58-7.96-18.58-17.57,0-1.27.15-2.5.42-3.69l-20.46,1.69c-.04.66-.1,1.32-.1,2,0,19.86,15.38,35.97,37.34,35.97Z"/>
      <polygon class="cls-2" points="408.83 165.79 408.83 185.98 389.43 185.98 389.43 167.4 369.29 169.06 369.29 231.48 389.43 231.48 389.43 204.2 408.83 204.2 408.83 231.48 428.88 231.48 428.88 164.14 408.83 165.79"/>
      <path class="cls-2" d="m349.43,179.85c4.67,0,9.06,1.01,12.63,3.39v-13.58l-42.01,3.47c-5.9,6.36-9.33,14.81-9.33,24.11,0,19.86,15.38,35.97,37.34,35.97,5.03,0,9.79-.73,14-2.74v-19.04c-3.57,2.38-7.96,3.39-12.63,3.39-10.53,0-18.58-7.96-18.58-17.57s8.05-17.39,18.58-17.39Z"/>
      <polygon class="cls-2" points="239.97 231.48 260.11 231.48 260.11 196.88 286.19 231.48 304.96 231.48 304.96 174.38 284.91 176.03 284.91 197.52 269.7 177.29 239.97 179.75 239.97 231.48"/>
    </g>
  </g>
</svg>